<?xml version="1.0" encoding="UTF-8" standalone="no"?>
<!DOCTYPE svg PUBLIC "-//W3C//DTD SVG 1.1//EN" "http://www.w3.org/Graphics/SVG/1.1/DTD/svg11.dtd">
<svg width="100%" height="100%" viewBox="0 0 36 36" version="1.1" xmlns="http://www.w3.org/2000/svg" xmlns:xlink="http://www.w3.org/1999/xlink" xml:space="preserve" style="fill-rule:evenodd;clip-rule:evenodd;stroke-linejoin:round;stroke-miterlimit:1.41421;">
    <g transform="matrix(0.0703125,0,0,0.0703125,0,0)">
        <path d="M256,48C255.9,48 255.9,48 255.8,48L255.7,48C255.6,48 255.5,48 255.5,48C140.8,48.3 48,141.3 48,256C48,370.7 140.8,463.7 255.5,464L256,464C370.9,464 464,370.9 464,256C464,141.1 370.9,48 256,48ZM256,447.4C255.9,447.4 255.9,447.4 255.8,447.4L255.7,447.4C255.6,447.4 255.5,447.4 255.5,447.4C150.1,447.1 64.6,361.5 64.6,256C64.6,150.5 150,64.9 255.5,64.7L256,64.7C361.7,64.7 447.4,150.4 447.4,256.1C447.4,361.7 361.7,447.4 256,447.4Z" style="fill-rule:nonzero;"/>
        <path d="M322.3,171.8C303.6,176.3 284.3,179 264.4,179.6L264.4,247.7L332,247.7C331.4,219.6 327.9,194.1 322.3,171.8Z" style="fill-rule:nonzero;"/>
        <path d="M264.3,82.5L264.3,164.4C282.8,163.8 300.8,161.4 318.1,157.2C305,115.8 284.6,88.6 264.3,82.5Z" style="fill-rule:nonzero;"/>
        <path d="M193.4,157.1C210.9,161.3 229,163.8 247.6,164.4L247.6,82.3C227.3,88.2 206.6,115.4 193.4,157.1Z" style="fill-rule:nonzero;"/>
        <path d="M380.6,133.4C358,110.4 329.1,93.6 296.7,85.9C311.5,101.2 323.9,124.6 332.8,153.2C349.5,148.1 365.5,141.5 380.6,133.4Z" style="fill-rule:nonzero;"/>
        <path d="M347.3,247.7L430.6,247.7C428.8,208.9 414.3,173.3 391.1,145.1C374,154.5 355.9,162.2 337,167.9C343.1,191.9 346.7,219 347.3,247.7Z" style="fill-rule:nonzero;"/>
        <path d="M179.5,247.7L247.7,247.7L247.7,179.6C227.6,179 208.1,176.3 189.3,171.7C183.6,194 180.1,219.6 179.5,247.7Z" style="fill-rule:nonzero;"/>
        <path d="M332,264.3L264.3,264.3L264.3,332.3C284.2,332.9 303.6,335.5 322.3,340.1C327.9,317.9 331.4,292.3 332,264.3Z" style="fill-rule:nonzero;"/>
        <path d="M189.3,340.2C208.1,335.6 227.6,332.9 247.7,332.3L247.7,264.3L179.5,264.3C180.1,292.4 183.6,318 189.3,340.2Z" style="fill-rule:nonzero;"/>
        <path d="M247.7,429.6L247.7,347.5C229.1,348.1 210.9,350.6 193.4,354.8C206.6,396.5 227.3,423.8 247.7,429.6Z" style="fill-rule:nonzero;"/>
        <path d="M296.7,426.1C329.1,418.3 358,401.6 380.7,378.5C365.6,370.4 349.6,363.8 332.9,358.7C324,387.4 311.5,410.7 296.7,426.1Z" style="fill-rule:nonzero;"/>
        <path d="M214.7,86.1C182.6,93.9 153.9,110.6 131.4,133.5C146.4,141.5 162.2,148.1 178.7,153.1C187.6,124.6 200,101.4 214.7,86.1Z" style="fill-rule:nonzero;"/>
        <path d="M337,344.1C356,349.8 374.1,357.5 391.2,366.9C414.4,338.7 428.9,303.1 430.7,264.3L347.4,264.3C346.7,293 343.1,320 337,344.1Z" style="fill-rule:nonzero;"/>
        <path d="M264.3,347.5L264.3,429.5C284.6,423.4 305,396.2 318.1,354.7C300.8,350.5 282.8,348.1 264.3,347.5Z" style="fill-rule:nonzero;"/>
        <path d="M174.6,167.8C155.8,162.1 137.8,154.5 120.9,145.1C97.7,173.3 83.2,208.9 81.4,247.7L164.3,247.7C164.8,218.9 168.5,191.8 174.6,167.8Z" style="fill-rule:nonzero;"/>
        <path d="M164.2,264.3L81.3,264.3C83.1,303.1 97.6,338.7 120.8,366.9C137.7,357.6 155.7,349.9 174.5,344.2C168.5,320.2 164.8,293.1 164.2,264.3Z" style="fill-rule:nonzero;"/>
        <path d="M131.3,378.5C153.8,401.4 182.5,418.1 214.7,425.9C200,410.6 187.6,387.3 178.7,358.8C162.2,363.9 146.3,370.5 131.3,378.5Z" style="fill-rule:nonzero;"/>
    </g>
</svg>
